<svg xmlns="http://www.w3.org/2000/svg" version="1.1" xmlnsXlink="http://www.w3.org/1999/xlink" xmlnsSvgjs="http://svgjs.com/svgjs" width="1440" height="560" preserveAspectRatio="none" viewBox="0 0 1440 560"><g mask="url(&quot;#SvgjsMask1015&quot;)" fill="none"><rect width="1440" height="560" x="0" y="0" fill="#0e2a47"></rect><path d="M 0,81 C 57.6,95.6 172.8,145.2 288,154 C 403.2,162.8 460.8,123 576,125 C 691.2,127 748.8,177.2 864,164 C 979.2,150.8 1036.8,62.6 1152,59 C 1267.2,55.4 1382.4,128.6 1440,146L1440 560L0 560z" fill="rgba(25, 76, 127, 1)"></path><path d="M 0,360 C 48,378 144,451 240,450 C 336,449 384,342.2 480,355 C 576,367.8 624,527.8 720,514 C 816,500.2 864,288 960,286 C 1056,284 1104,485.6 1200,504 C 1296,522.4 1392,403.2 1440,378L1440 560L0 560z" fill="rgba(0, 112, 233, 1)"></path></g><defs><mask id="SvgjsMask1015"><rect width="1440" height="560" fill="#ffffff"></rect></mask></defs></svg>